<svg xmlns="http://www.w3.org/2000/svg" viewBox="0 0 110.06 19.13"><defs><style>.cls-1{fill:#ef7226;}.cls-2{fill:#f49225;}</style></defs><title>Fichier 1</title><g id="Calque_2" data-name="Calque 2"><g id="Calque_1-2" data-name="Calque 1"><path class="cls-1" d="M0,9.56V9.38A4.26,4.26,0,0,1,.2,8.11a3.91,3.91,0,0,1,2-2.31,4.58,4.58,0,0,1,2.1-.5,5.94,5.94,0,0,1,1.42.18A4.31,4.31,0,0,1,8.07,7.11a.64.64,0,0,1,.09.29.27.27,0,0,1-.2.26l-.33.21a.89.89,0,0,1-.3.06A.32.32,0,0,1,7,7.76,4.65,4.65,0,0,0,5.24,6.61a5,5,0,0,0-1-.14,1.32,1.32,0,0,0-.75.18C3.18,6.81,3,7.25,3,8v3.2c0,.71.14,1.15.42,1.31a1.32,1.32,0,0,0,.75.18,4.38,4.38,0,0,0,1-.14A4.54,4.54,0,0,0,7,11.36a.32.32,0,0,1,.3-.17.89.89,0,0,1,.3.06l.33.22a.26.26,0,0,1,.2.25.64.64,0,0,1-.09.29,4.31,4.31,0,0,1-2.31,1.63,5.94,5.94,0,0,1-1.42.18,4.58,4.58,0,0,1-2.1-.5A3.91,3.91,0,0,1,.2,11,4.26,4.26,0,0,1,0,9.74Z"/><path class="cls-1" d="M11.22,6.53H9.35c-.17,0-.25-.07-.25-.2V5.62c0-.17.09-.25.28-.25H11.2c.18,0,.27.08.27.25v.71c0,.13-.09.2-.25.2m-.11,1.18a.32.32,0,0,1,.36.35v5.38a.31.31,0,0,1-.34.35H9.41c-.21,0-.31-.12-.31-.37V8c0-.22.11-.33.34-.33Z"/><path class="cls-1" d="M16.29,5.37c.18,0,.27.08.27.25v.71c0,.13-.08.2-.26.2h-.77v6.91a.31.31,0,0,1-.35.35H13.55c-.21,0-.32-.12-.32-.37V6.53h-.78c-.17,0-.26-.07-.26-.2V5.62c0-.17.09-.25.27-.25Z"/><path class="cls-1" d="M19.69,9.76a.29.29,0,0,0,.33.33h1a1.34,1.34,0,0,0,1-.43,1.85,1.85,0,0,0,.53-1.33,1.7,1.7,0,0,0-1.76-1.8H20c-.23,0-.34.09-.34.29Zm1.43-4.35A2.64,2.64,0,0,1,23,6.25a2.84,2.84,0,0,1,0,4.06,3,3,0,0,1-.63.55.21.21,0,0,0-.07.15.2.2,0,0,0,0,.07L23.44,13l.34.6a.27.27,0,0,1,0,.13c0,.07-.07.11-.2.11H22.48a.26.26,0,0,1-.25-.13l-1.34-2.4h-1c-.15,0-.23.07-.23.21v1.95a.32.32,0,0,1-.37.37H17.61a.29.29,0,0,1-.32-.32V5.73c0-.22.12-.32.34-.32Z"/><path class="cls-1" d="M33.88,9.56a4.31,4.31,0,0,1-1.34,3.15,4.73,4.73,0,0,1-6.6,0,4.36,4.36,0,0,1,0-6.29,4.73,4.73,0,0,1,6.6,0,4.31,4.31,0,0,1,1.34,3.14M27.72,11.7q0,.68.27.81a1.93,1.93,0,0,0,1.25.33,3,3,0,0,0,2.19-.94,3.17,3.17,0,0,0,.93-2.34,3.17,3.17,0,0,0-.94-2.34,3,3,0,0,0-2.2-.94,1.65,1.65,0,0,0-1.14.29c-.24.11-.36.42-.36,1Z"/><path class="cls-1" d="M37.17,5.52a7,7,0,0,1,1.14-.22l.65,0A3.84,3.84,0,0,1,41.3,6a2.55,2.55,0,0,1,1.18,2.11v5.39c0,.21-.09.32-.27.32h-.85a.32.32,0,0,1-.37-.37v-5a1.81,1.81,0,0,0-.7-1.62A2.32,2.32,0,0,0,39,6.4l-.52,0c-.78.11-1.18.33-1.23.68v6.33a.31.31,0,0,1-.34.35H35.15c-.2,0-.31-.12-.31-.37V5.69c0-.21.11-.32.34-.32h1.68a.32.32,0,0,1,.31.15"/><path class="cls-1" d="M69.13,9.45h0a12.12,12.12,0,0,1,.64,2.29v.07a2,2,0,0,1-.55,1.36,2.18,2.18,0,0,1-1.51.73H67.5A2.07,2.07,0,0,1,66,13.36a.37.37,0,0,1,0-.14.4.4,0,0,1,.09-.23l.33-.34a.36.36,0,0,1,.26-.16.42.42,0,0,1,.23.1.94.94,0,0,0,.46.16.32.32,0,0,0,.22-.07.37.37,0,0,0,.14-.32,1,1,0,0,0,0-.27l-.79-2.41h0a13.29,13.29,0,0,1-.64-2.29V7.32A2,2,0,0,1,66.77,6a2.17,2.17,0,0,1,1.51-.72h.22A2,2,0,0,1,70,5.77a.23.23,0,0,1,0,.14.43.43,0,0,1-.07.23l-.35.33a.31.31,0,0,1-.25.16.37.37,0,0,1-.23-.09,1,1,0,0,0-.47-.17.33.33,0,0,0-.21.07.39.39,0,0,0-.14.32,1,1,0,0,0,0,.28Z"/><path class="cls-1" d="M77.19,11.14V7.91a1,1,0,0,0-.36-.63,2.62,2.62,0,0,0-1.37-.39h-.25a2.87,2.87,0,0,0-1.74.63,2.47,2.47,0,0,0-.93,2.1,2.48,2.48,0,0,0,.93,2.11,2.92,2.92,0,0,0,1.75.62h.25a2.54,2.54,0,0,0,1.39-.4,1,1,0,0,0,.33-.79m0,2.24a4.32,4.32,0,0,1-2,.45,4.21,4.21,0,0,1-3.1-1.26,4.11,4.11,0,0,1,0-5.92,4.21,4.21,0,0,1,3.1-1.26,4.44,4.44,0,0,1,2,.44V5.74a.3.3,0,0,1,.34-.33h1.68a.32.32,0,0,1,.35.36v7.71c0,.24-.11.35-.34.35H77.51c-.21,0-.32-.12-.32-.37Z"/><path class="cls-1" d="M84.69,5.41c.22,0,.32.1.32.29v.58a.24.24,0,0,1-.28.28H83c-.17,0-.26.08-.26.25V9.86c0,.19.09.29.26.29h.6c.18,0,.27.08.27.25v.71c0,.13-.09.2-.26.2H83c-.16,0-.23.09-.23.26v2c0,.2-.09.29-.28.29H80.67q-.24,0-.24-.27V5.74a.29.29,0,0,1,.32-.33Z"/><path class="cls-1" d="M88,9.8c0,.23.11.34.33.34h1a1.34,1.34,0,0,0,1-.44,1.83,1.83,0,0,0,.53-1.33,1.77,1.77,0,0,0-.47-1.28A1.75,1.75,0,0,0,89,6.57h-.71c-.23,0-.34.1-.34.29ZM89.4,5.45a2.64,2.64,0,0,1,1.92.84,2.82,2.82,0,0,1,.86,2,2.77,2.77,0,0,1-.85,2,3.43,3.43,0,0,1-.63.55.17.17,0,0,0-.07.14.19.19,0,0,0,0,.07L91.72,13l.35.59a.46.46,0,0,1,0,.13c0,.08-.07.11-.2.11H90.76a.28.28,0,0,1-.25-.12l-1.34-2.4h-1c-.15,0-.23.07-.23.2v2a.32.32,0,0,1-.36.36H85.89c-.21,0-.31-.1-.31-.32V5.77c0-.21.11-.32.34-.32Z"/><path class="cls-1" d="M99.16,11.14V7.91a1,1,0,0,0-.36-.63,2.62,2.62,0,0,0-1.37-.39h-.25a2.82,2.82,0,0,0-1.74.63,2.48,2.48,0,0,0-.94,2.1,2.48,2.48,0,0,0,.94,2.11,2.9,2.9,0,0,0,1.75.62h.25a2.54,2.54,0,0,0,1.39-.4,1,1,0,0,0,.33-.79m0,2.24a4.35,4.35,0,0,1-2,.45,4.21,4.21,0,0,1-3.1-1.26,4.11,4.11,0,0,1,0-5.92,4.21,4.21,0,0,1,3.1-1.26,4.47,4.47,0,0,1,2,.44V5.74c0-.22.11-.33.34-.33h1.68a.32.32,0,0,1,.35.36v7.71c0,.24-.11.35-.34.35H99.47c-.2,0-.31-.12-.31-.37Z"/><path class="cls-1" d="M104.75,5.56a7,7,0,0,1,1.14-.21,4.82,4.82,0,0,1,.65,0,3.84,3.84,0,0,1,2.34.7,2.56,2.56,0,0,1,1.18,2.12v5.38c0,.22-.09.32-.27.32h-.85a.32.32,0,0,1-.37-.36V8.42a1.81,1.81,0,0,0-.7-1.61,2.21,2.21,0,0,0-1.32-.37,4.91,4.91,0,0,0-.53,0c-.78.1-1.18.33-1.23.67v6.33c0,.24-.11.35-.34.35h-1.71c-.21,0-.32-.12-.32-.37V5.74a.3.3,0,0,1,.34-.33h1.68a.32.32,0,0,1,.31.15"/><path class="cls-2" d="M53.64,0c.37.09.46.28.39.67s0,1.08-.11,1.61c0,.16,0,.41-.25.38s-.16-.24-.17-.38c0-.76,0-1.52,0-2.28Z"/><path class="cls-2" d="M44.19,9.32a15.42,15.42,0,0,1,2.45.13c.47,0,.34.25.1.46a11,11,0,0,0-2,0c-.35,0-.51-.11-.56-.44Z"/><path class="cls-2" d="M52.46,8.49l.88-.23a1.62,1.62,0,0,1,2,1.61.74.74,0,0,1-.75.78,4,4,0,0,1-3.79-1.21A.46.46,0,0,1,50.66,9c.08-.54.13-1.08.22-1.61A.62.62,0,0,1,51.1,7c1.39-1.13,4.18-1.26,5.3.58A5.12,5.12,0,0,1,57,11c-.09.76-1.3,1.56-2.32,1.65a10.17,10.17,0,0,1-3.11-.28c-.51-.11-1-.23-1.53-.3a1.46,1.46,0,0,1-1.16-.87A6.48,6.48,0,0,1,48.06,7c.48-2.08,1.42-2.79,3.56-3a14.34,14.34,0,0,1,5.92.76,2.65,2.65,0,0,1,1.9,2.63,16.6,16.6,0,0,1-.34,5.21,2.66,2.66,0,0,1-1.71,2A12.19,12.19,0,0,1,50.8,15a2.27,2.27,0,0,1-1.57-1.35c.44-.15.86.07,1.29.07,1.69,0,3.38.06,5.07-.11a3.11,3.11,0,0,0,2.53-2.9,8.61,8.61,0,0,0-.57-3.48A2.61,2.61,0,0,0,55.3,5.36a18.84,18.84,0,0,0-3.44-.15C50.7,5.28,50,6,49.9,7.4a8.8,8.8,0,0,0,.4,3.45.66.66,0,0,0,.7.53,21.23,21.23,0,0,0,3.74,0c.61-.09.83-.29.83-.93a6,6,0,0,0-.07-1.2c-.12-.56-.18-1.15-.89-1.28s-1.69-.31-2.33.49a.82.82,0,0,0,0,.65c0-.25-.13-.53.22-.63"/><path class="cls-2" d="M59,15.18c.16-.12.23-.41.49-.19.63.53,1.24,1.08,1.87,1.62.24.2.07.34-.05.5s-.2.23-.38.05c-.59-.61-1.19-1.2-1.79-1.8a1.41,1.41,0,0,1-.14-.18"/><path class="cls-2" d="M46.13,2.3c0-.18.19-.24.3-.35s.21-.05.3.05c.56.63,1.12,1.27,1.67,1.91a.2.2,0,0,1,0,.31c-.09.09-.19.19-.31.07-.63-.62-1.26-1.25-1.88-1.88,0,0,0-.07-.06-.11"/><path class="cls-2" d="M46.13,16.73l.19-.2L48,15.05c.14-.13.27-.25.46-.08s0,.31-.07.43L46.75,17c-.09.09-.18.25-.35.13a.64.64,0,0,1-.27-.42"/><path class="cls-2" d="M61,1.93a2,2,0,0,1,.36.29c.11.12,0,.22-.11.3L59.56,4.23c-.11.1-.22.18-.36,0a.24.24,0,0,1-.05-.37L60.81,2A.43.43,0,0,1,61,1.93"/><path class="cls-2" d="M62,9.91h-1c-.16,0-.28,0-.28-.22s.08-.24.25-.25l2-.13c.24,0,.38.06.39.33s-.22.27-.41.27H62"/><path class="cls-2" d="M53.5,17.76v-1c0-.12,0-.25.18-.26s.19.11.22.23a19.78,19.78,0,0,1,.15,2.17c0,.22-.15.25-.33.26s-.22-.14-.22-.29V17.76"/></g></g></svg>